<svg xmlns="http://www.w3.org/2000/svg" data-name="Layer 1" viewBox="0 0 64 80" width="210" height="210" fill="#FF6243" x="0px" y="0px"><path d="M62.024,52.17l.524-.289a.845.845,0,0,0,.331-1.181l-1.45-2.4a.927.927,0,0,0-1.235-.316l-.53.292a.959.959,0,0,1-1.029-.084,7.685,7.685,0,0,0-1.692-.939.89.89,0,0,1-.589-.81v-.579a.885.885,0,0,0-.9-.864h-2.9a.885.885,0,0,0-.9.864v.579a.89.89,0,0,1-.589.81,7.685,7.685,0,0,0-1.692.939.959.959,0,0,1-1.029.084l-.53-.292a.927.927,0,0,0-1.235.316l-1.45,2.4a.845.845,0,0,0,.331,1.181l.524.289a.836.836,0,0,1,.445.841,6.924,6.924,0,0,0,0,1.978.836.836,0,0,1-.445.841l-.524.289a.845.845,0,0,0-.331,1.181l1.45,2.4a.927.927,0,0,0,1.235.316l.53-.292a.959.959,0,0,1,1.029.084,7.685,7.685,0,0,0,1.692.939.89.89,0,0,1,.589.81v.579a.885.885,0,0,0,.9.864h2.9a.885.885,0,0,0,.9-.864v-.579a.89.89,0,0,1,.589-.81,7.685,7.685,0,0,0,1.692-.939.959.959,0,0,1,1.029-.084l.53.292a.927.927,0,0,0,1.235-.316l1.45-2.4a.845.845,0,0,0-.331-1.181l-.524-.289a.836.836,0,0,1-.445-.841,6.924,6.924,0,0,0,0-1.978A.836.836,0,0,1,62.024,52.17ZM54,57.375A3.375,3.375,0,1,1,57.375,54,3.375,3.375,0,0,1,54,57.375Z"/><path d="M18,53H16v6a1,1,0,0,0,1,1H42V58H18Z"/><path d="M38,43H36v8a1,1,0,0,0,1,1h5V50H38Z"/><rect x="54" y="32" width="2" height="10"/><path d="M31,49V29a1,1,0,0,0-1-1H2a1,1,0,0,0-1,1V49a1,1,0,0,0,1,1H30A1,1,0,0,0,31,49ZM25,32H23V30h2Zm4,0H27V30h2Z"/><path d="M46,39V17a1,1,0,0,0-1-1H13a1,1,0,0,0-1,1v9H31a2,2,0,0,1,2,2V40H45A1,1,0,0,0,46,39ZM40,20H38V18h2Zm4,0H42V18h2Z"/><path d="M62,1H24a1,1,0,0,0-1,1V14H46a2,2,0,0,1,2,2V29H62a1,1,0,0,0,1-1V2A1,1,0,0,0,62,1ZM57,5H55V3h2Zm4,0H59V3h2Z"/></svg>