<svg xmlns="http://www.w3.org/2000/svg" xmlns:xlink="http://www.w3.org/1999/xlink" version="1.1" x="0px" y="0px" viewBox="0 0 64 80" width="210" height="210" xml:space="preserve" fill="#FF6243"><path d="M31,39.41V34.5c0-0.398-0.159-0.785-0.437-1.062C30.285,33.159,29.897,33,29.5,33c-0.827,0-1.5,0.673-1.5,1.5v2V39h1.34  C29.922,39,30.486,39.152,31,39.41z"/><path d="M26,39v-2.5c0-0.398-0.159-0.785-0.437-1.062C25.285,35.159,24.897,35,24.5,35c-0.827,0-1.5,0.673-1.5,1.5v3.092  C23.74,39.216,24.575,39,25.46,39H26z"/><path d="M41,51.84v-6.191C40.544,45.867,40.039,46,39.5,46c-0.98,0-1.864-0.407-2.5-1.058C36.364,45.593,35.48,46,34.5,46  c-0.978,0-1.861-0.406-2.497-1.055c-0.01,0.01-0.016,0.022-0.026,0.032c-0.494,0.494-1.113,0.822-1.787,0.955  C29.965,45.977,29.734,46,29.5,46H27v0.577c0.312,0.266,0.706,0.443,1.149,0.518C31.539,47.654,34,50.559,34,54h-2  c0-2.458-1.757-4.532-4.179-4.933c-0.917-0.152-1.732-0.563-2.357-1.189l-0.172-0.172C25.105,47.519,25,47.265,25,47v-2  c0-0.553,0.448-1,1-1h3.5c0.397,0,0.785-0.159,1.063-0.438c0.12-0.12,0.211-0.261,0.284-0.412c0.008-0.017,0.019-0.032,0.026-0.05  c0.063-0.145,0.099-0.302,0.114-0.463c0.003-0.03,0.008-0.06,0.009-0.091c0.009-0.361-0.129-0.716-0.398-1.002  C30.271,41.198,29.813,41,29.34,41h-3.88C23.552,41,22,42.552,22,44.46v6.24c0,0.634,0.261,1.251,0.717,1.692l2.979,2.89  C25.89,55.471,26,55.729,26,56v4.954C27.879,61.619,29.893,62,32,62s4.121-0.381,6-1.046V56c0-0.43,0.275-0.812,0.683-0.948  C40.069,54.588,41,53.297,41,51.84z"/><path d="M36,42.5v-5v-3c0-0.827-0.673-1.5-1.5-1.5S33,33.673,33,34.5v8c0,0.827,0.673,1.5,1.5,1.5S36,43.327,36,42.5z"/><path d="M32,26c-9.941,0-18,8.059-18,18c0,7.063,4.078,13.159,10,16.107v-3.684l-2.676-2.595C20.482,53.012,20,51.871,20,50.7v-6.24  c0-1.169,0.372-2.25,1-3.139V36.5c0-1.93,1.57-3.5,3.5-3.5c0.601,0,1.17,0.164,1.68,0.445C26.631,32.032,27.94,31,29.5,31  c0.938,0,1.817,0.363,2.477,1.023c0.01,0.01,0.016,0.022,0.026,0.031C32.639,31.406,33.522,31,34.5,31  c1.881,0,3.41,1.496,3.486,3.359C38.446,34.136,38.955,34,39.5,34c1.93,0,3.5,1.57,3.5,3.5v5c0,0.171-0.027,0.335-0.051,0.5H43v8.84  c0,2.069-1.18,3.928-3,4.827v3.44C45.922,57.159,50,51.063,50,44C50,34.059,41.941,26,32,26z"/><path d="M41,42.5v-5c0-0.827-0.673-1.5-1.5-1.5S38,36.673,38,37.5v5c0,0.827,0.673,1.5,1.5,1.5S41,43.327,41,42.5z"/><path d="M53,2c-4.971,0-9,4.029-9,9c0,3.329,1.812,6.229,4.5,7.786V15.39c0-1.191,0.467-2.321,1.314-3.181  c0.383-0.377,0.823-0.665,1.292-0.884C50.142,10.7,49.5,9.621,49.5,8.39c0-1.93,1.57-3.5,3.5-3.5s3.5,1.57,3.5,3.5  c0,1.23-0.641,2.309-1.604,2.934c1.533,0.718,2.604,2.265,2.604,4.066v3.396C60.188,17.229,62,14.329,62,11C62,6.029,57.971,2,53,2z  "/><path d="M49.5,15.39v3.904C50.576,19.748,51.759,20,53,20s2.424-0.252,3.5-0.706V15.39c0-1.93-1.57-3.5-3.5-3.5  c-0.928,0-1.808,0.364-2.479,1.026C49.864,13.582,49.5,14.463,49.5,15.39z"/><circle cx="53" cy="8.39" r="2.5"/><path d="M28.5,15.39v3.904C29.576,19.748,30.759,20,32,20s2.424-0.252,3.5-0.706V15.39c0-1.93-1.57-3.5-3.5-3.5  c-0.928,0-1.808,0.364-2.479,1.026C28.864,13.582,28.5,14.463,28.5,15.39z"/><path d="M41,11c0-4.971-4.029-9-9-9s-9,4.029-9,9c0,3.329,1.812,6.229,4.5,7.786V15.39c0-1.191,0.467-2.321,1.314-3.181  c0.383-0.377,0.823-0.665,1.292-0.884C29.142,10.7,28.5,9.621,28.5,8.39c0-1.93,1.57-3.5,3.5-3.5s3.5,1.57,3.5,3.5  c0,1.23-0.641,2.309-1.604,2.934c1.533,0.718,2.604,2.265,2.604,4.066v3.396C39.188,17.229,41,14.329,41,11z"/><circle cx="32" cy="8.39" r="2.5"/><path d="M7.5,15.39v3.904C8.576,19.748,9.759,20,11,20s2.424-0.252,3.5-0.706V15.39c0-1.93-1.57-3.5-3.5-3.5  c-0.928,0-1.808,0.364-2.479,1.026C7.864,13.582,7.5,14.463,7.5,15.39z"/><circle cx="11" cy="8.39" r="2.5"/><path d="M6.5,18.786V15.39c0-1.191,0.467-2.321,1.314-3.181c0.383-0.377,0.823-0.665,1.292-0.884C8.142,10.7,7.5,9.621,7.5,8.39  c0-1.93,1.57-3.5,3.5-3.5s3.5,1.57,3.5,3.5c0,1.23-0.641,2.309-1.604,2.934c1.533,0.718,2.604,2.265,2.604,4.066v3.396  C18.188,17.229,20,14.329,20,11c0-4.971-4.029-9-9-9s-9,4.029-9,9C2,14.329,3.812,17.229,6.5,18.786z"/><path d="M2.293,25.707l4.95,4.95c0.245,0.245,0.6,0.344,0.937,0.267c0.337-0.08,0.609-0.329,0.719-0.657l0.902-2.708l3.806,3.806  l1.414-1.414L10.071,25c-0.245-0.245-0.601-0.345-0.937-0.267c-0.337,0.08-0.609,0.329-0.719,0.657l-0.902,2.708l-3.806-3.806  L2.293,25.707z"/><path d="M56.487,28.099l-0.902-2.708c-0.109-0.328-0.382-0.577-0.719-0.657c-0.34-0.078-0.693,0.021-0.937,0.267l-4.95,4.95  l1.414,1.414l3.806-3.806l0.902,2.708c0.109,0.328,0.382,0.577,0.719,0.657c0.337,0.077,0.692-0.022,0.937-0.267l4.95-4.95  l-1.414-1.414L56.487,28.099z"/><path d="M9.134,50.905c-0.337,0.08-0.609,0.329-0.719,0.657L7.513,54.27l-3.806-3.805l-1.414,1.414l4.95,4.949  c0.245,0.245,0.6,0.344,0.937,0.267c0.337-0.08,0.609-0.329,0.719-0.657l0.902-2.707l3.806,3.805l1.414-1.414l-4.95-4.949  C9.826,50.927,9.47,50.828,9.134,50.905z"/><path d="M56.487,54.27l-0.902-2.707c-0.11-0.328-0.382-0.577-0.719-0.657c-0.338-0.077-0.693,0.021-0.937,0.267l-4.95,4.949  l1.414,1.414l3.806-3.805l0.902,2.707c0.11,0.328,0.382,0.577,0.719,0.657c0.335,0.076,0.692-0.021,0.937-0.267l4.95-4.949  l-1.414-1.414L56.487,54.27z"/></svg>