<svg xmlns="http://www.w3.org/2000/svg" data-name="Layer 1" viewBox="0 0 64 80" x="0px" y="0px" width="210" height="210" fill="#FF6243"><path d="M52.5,9.5c0-4.14-3.36-7.5-7.5-7.5s-7.5,3.36-7.5,7.5,3.36,7.5,7.5,7.5,7.5-3.36,7.5-7.5Zm-8-1h1c1.38,0,2.5,1.23,2.5,2.75,0,1.33-.86,2.44-2,2.69v1.06h-2v-1.06c-1.14-.26-2-1.37-2-2.69h2c0,.44,.26,.75,.5,.75h1c.24,0,.5-.31,.5-.75s-.26-.75-.5-.75h-1c-1.38,0-2.5-1.23-2.5-2.75,0-1.33,.86-2.44,2-2.69v-1.06h2v1.06c1.14,.26,2,1.37,2,2.69h-2c0-.44-.26-.75-.5-.75h-1c-.24,0-.5,.31-.5,.75s.26,.75,.5,.75Z"/><path d="M31.92,10.51c.05-.33,.08-.67,.08-1.01s-.03-.68-.08-1.01l-1.05-.54c-.16-.66-.42-1.29-.77-1.86l.36-1.13c-.41-.53-.89-1.01-1.42-1.42l-1.13,.36c-.57-.35-1.2-.61-1.86-.77l-.54-1.05c-.33-.05-.67-.08-1.01-.08s-.68,.03-1.01,.08l-.54,1.05c-.66,.16-1.29,.42-1.86,.77l-1.13-.36c-.53,.41-1.01,.89-1.42,1.42l.36,1.13c-.35,.57-.61,1.2-.77,1.86l-1.05,.54c-.05,.33-.08,.67-.08,1.01s.03,.68,.08,1.01l1.05,.54c.16,.66,.42,1.29,.77,1.86l-.36,1.13c.41,.53,.89,1.01,1.42,1.42l1.13-.36c.57,.35,1.2,.61,1.86,.77l.54,1.05c.33,.05,.67,.08,1.01,.08s.68-.03,1.01-.08l.54-1.05c.66-.16,1.29-.42,1.86-.77l1.13,.36c.53-.41,1.01-.89,1.42-1.42l-.36-1.13c.35-.57,.61-1.2,.77-1.86l1.05-.54Zm-7.42,1.99c-1.66,0-3-1.34-3-3s1.34-3,3-3,3,1.34,3,3-1.34,3-3,3Z"/><path d="M43.2,37h3.6c.11,0,.2-.09,.2-.2v-9.6c0-.11,.09-.2,.2-.2h1.8l-3.83-5.75c-.08-.12-.25-.12-.33,0l-3.83,5.75h1.8c.11,0,.2,.09,.2,.2v9.6c0,.11,.09,.2,.2,.2Z"/><path d="M22.7,37h3.6c.11,0,.2-.09,.2-.2v-9.6c0-.11,.09-.2,.2-.2h1.8l-3.83-5.75c-.08-.12-.25-.12-.33,0l-3.83,5.75h1.8c.11,0,.2,.09,.2,.2v9.6c0,.11,.09,.2,.2,.2Z"/><path d="M5.2,37h3.6c.11,0,.2-.09,.2-.2v-9.6c0-.11,.09-.2,.2-.2h1.8l-3.83-5.75c-.08-.12-.25-.12-.33,0l-3.83,5.75h1.8c.11,0,.2,.09,.2,.2v9.6c0,.11,.09,.2,.2,.2Z"/><path d="M53,46.31l-5.25-2.48c-.59-.28-1.18-.52-1.73-.73-1.61-.58-4.47-1.15-6.12-1.2-1.57-.05-2.75,.1-4.25,.3l-.47,.06-6.97,.97c-.78,.16-1.47,.6-1.9,1.24-.44,.62-.58,1.37-.41,2.11,0,.02,0,.07,.02,.1,.29,1.23,1.52,2.15,2.97,2.15l9.02,.06v1s-9.03-.06-9.03-.06c-1.91,0-3.54-1.24-3.95-3.01-.01-.03-.01-.07-.01-.1-.07-.29-.1-.59-.09-.89l-18.77-.67c-.09,0-.22,.01-.32,.02-.68,.11-1.26,.55-1.54,1.18-.26,.57-.27,1.21-.01,1.76,.25,.55,.73,.96,1.31,1.13l21.75,7.71c2.25,.63,4.58,.77,6.89,.41l7.85-1.24c.06-.01,.12-.01,.18,0l10.83,2.26v-12.08Z"/><rect x="54" y="43" width="6" height="19" rx=".5" ry=".5"/><path d="M11,11.5c0-1.38-1.12-2.5-2.5-2.5h-3c-1.38,0-2.5,1.12-2.5,2.5v5.3c0,.11,.09,.2,.2,.2h7.6c.11,0,.2-.09,.2-.2v-5.3Z"/><circle cx="7" cy="5.25" r="2.75"/></svg>