<svg xmlns="http://www.w3.org/2000/svg" xmlns:xlink="http://www.w3.org/1999/xlink" version="1.1" x="0px" y="0px" viewBox="44 -32 400 540" fill="#FF6243" width="100" height="100" xml:space="preserve"><style type="text/css">
	.st0{fill-rule:evenodd;clip-rule:evenodd;}
</style><path class="st0" d="M151.734,189.761c3.314,0,6,2.686,6,6c0,3.314-2.686,6-6,6h-15.859c-3.314,0-6-2.686-6-6c0-3.314,2.686-6,6-6  H151.734L151.734,189.761z M250.3,189.761c3.314,0,6,2.686,6,6c0,3.314-2.686,6-6,6h-76.566c-3.314,0-6-2.686-6-6  c0-3.314,2.686-6,6-6H250.3L250.3,189.761z M234.825,217.261c3.314,0,6,2.686,6,6c0,3.314-2.686,6-6,6h-98.951c-3.314,0-6-2.686-6-6  c0-3.314,2.686-6,6-6H234.825L234.825,217.261z M430.729,387.486l-32.289,18.642l31.15,53.954c1.447,2.252,2.7,3.719,5.534,4.478  c2.857,0.765,4.666,0.115,7.048-1.114l16.339-9.433c2.251-1.447,3.719-2.7,4.478-5.534c0.765-2.857,0.115-4.666-1.114-7.047  L430.729,387.486L430.729,387.486z M409.169,201.904c-35.821-35.821-93.902-35.82-129.723,0c-35.82,35.82-35.82,93.902,0,129.723  c35.82,35.82,93.902,35.82,129.723,0C444.99,295.806,444.99,237.725,409.169,201.904L409.169,201.904z M344.308,163.038  c23.145,0,44.519,7.582,61.776,20.397V92.659c0-6.122-4.279-11.897-10.223-11.897H116.139c-5.944,0-10.223,5.774-10.223,11.897  v149.589c0,6.122,4.28,11.897,10.223,11.897h125.204C247.605,202.523,291.583,163.038,344.308,163.038L344.308,163.038z   M386.84,361.398c3.868-1.741,7.611-3.712,11.21-5.897l16.034,27.772l-10.961,6.328L386.84,361.398L386.84,361.398z   M266.995,335.916c26.865,30.021,69.168,42.197,108.514,29.8l13.017,22.546H58.964c-11.515,0-20.964-9.449-20.964-20.964v-66.686  h109.668v28.333c0,3.866,3.134,7,7,7H266.36C266.574,335.944,266.786,335.934,266.995,335.916L266.995,335.916z M446.137,286.612  h11.901V65.9c0-10.697-9.631-18.79-20.53-18.79H74.491c-10.899,0-20.529,8.093-20.529,18.79v220.711h100.705c3.866,0,7,3.134,7,7  v28.333h94.795c-9.832-15.619-15.614-34.044-15.872-53.8H116.139c-13.734,0-24.223-12.093-24.223-25.897V92.659  c0-13.803,10.489-25.896,24.223-25.896h279.722c13.734,0,24.223,12.094,24.223,25.896v102.577c0,0.225-0.011,0.446-0.031,0.665  C442.403,219.782,452.599,253.283,446.137,286.612L446.137,286.612z M377.679,208.496c-2.874-1.644-3.87-5.306-2.226-8.18  c1.644-2.873,5.306-3.87,8.18-2.226c5.996,3.429,11.54,7.672,16.448,12.556c2.343,2.33,2.353,6.118,0.023,8.461  c-2.33,2.343-6.118,2.353-8.461,0.023C387.483,214.99,382.846,211.45,377.679,208.496L377.679,208.496z M403.053,234.267  c17.669,31.947,6.592,72.315-25.159,90.647c-32.098,18.531-73.189,7.536-91.734-24.585c-18.529-32.094-7.539-73.144,24.586-91.711  c14.886-8.604,33.015-11.49,50.941-6.696c0.517,0.138,1.036,0.204,1.547,0.204v0.007c6.985,0,8.424-10.202,1.193-11.881  c-20.832-5.481-41.94-2.106-59.315,7.811c-0.123,0.061-0.246,0.126-0.366,0.195c-37.841,21.875-50.81,70.2-28.945,108.071  c21.844,37.835,70.189,50.802,108.047,28.945c37.445-21.619,50.522-68.998,29.706-106.772c-1.592-2.899-5.234-3.959-8.133-2.367  C402.521,227.726,401.461,231.367,403.053,234.267L403.053,234.267z M399.39,270.539c-28.364,35.051-81.8,35.052-110.163,0  c-1.922-2.375-1.732-5.772,0.328-7.92c6.572-8.01,14.854-14.55,24.279-19.052c29.674-14.172,64.941-5.959,85.533,19.425  c1.817,2.235,1.755,5.384,0.01,7.536L399.39,270.539L399.39,270.539z M356.831,254.243c6.915,6.914,6.915,18.13,0,25.045  c-11.124,11.124-30.231,3.21-30.231-12.523C326.6,251.033,345.708,243.119,356.831,254.243L356.831,254.243z M316.815,278.041  c-5.569-2.95-10.61-6.773-14.942-11.287c4.326-4.498,9.366-8.313,14.943-11.265C313.86,262.687,313.859,270.844,316.815,278.041  L316.815,278.041z M371.802,255.49c5.576,2.952,10.617,6.767,14.943,11.265c-4.332,4.514-9.374,8.336-14.943,11.287  C374.757,270.844,374.757,262.686,371.802,255.49L371.802,255.49z M326.5,113.261l0.866,0.357c0.206,0.206,0.334,0.503,0.334,0.843  v13.201l-0.357,0.866c-0.206,0.205-0.504,0.334-0.843,0.334H185.5l-0.866-0.357c-0.206-0.206-0.334-0.503-0.334-0.843v-13.201  l0.357-0.866c0.206-0.206,0.503-0.334,0.843-0.334H326.5L326.5,113.261z M185.5,101.261H326.5c3.608,0,6.901,1.483,9.303,3.873l0,0  c2.405,2.405,3.896,5.707,3.896,9.327v13.201c0,3.608-1.483,6.901-3.873,9.303l0,0c-2.405,2.405-5.707,3.896-9.327,3.896H185.5  c-3.609,0-6.902-1.483-9.303-3.873l0,0c-2.405-2.405-3.896-5.707-3.896-9.327v-13.201c0-3.609,1.483-6.902,3.873-9.303l0,0  C178.577,102.753,181.88,101.261,185.5,101.261L185.5,101.261z M211.797,153.443c3.314,0,6,2.686,6,6s-2.686,6-6,6h-15.859  c-3.314,0-6-2.686-6-6s2.686-6,6-6H211.797L211.797,153.443z M300.463,153.443c3.314,0,6,2.686,6,6s-2.686,6-6,6h-66.666  c-3.314,0-6-2.686-6-6s2.686-6,6-6H300.463L300.463,153.443z M407.92,348.7c15.791-12.277,27.857-28.939,34.465-48.088  c10.538,0,21.077,0,31.615,0v66.686c0,11.514-9.45,20.964-20.964,20.964h-8.063l-4.204-7.282c-1.502-2.802-3.983-4.679-6.85-5.447  c-3.743-1.003-6.361-0.04-9.488,1.766L407.92,348.7z"/></svg>