<svg xmlns="http://www.w3.org/2000/svg" xmlns:xlink="http://www.w3.org/1999/xlink" version="1.1" x="0px" y="0px" viewBox="-6 -8 44 52.5" fill="#FF6243" width="100" height="100" xml:space="preserve"><g><path d="M25.58645,30.59066c-0.06879-0.06873-0.17029-0.08856-0.2608-0.0531c-2.95752,1.15942-6.47369,0.71729-9.17792-1.52502   c-1.27917-1.06061-2.22168-2.50415-2.70026-4.0954c-1.84308-6.12805,2.73047-11.75916,8.58624-11.75916   c1.69965,0,3.29065,0.47589,4.64349,1.29041c0.16742,0.10083,0.37653-0.01172,0.37653-0.20715V2.99795c0-1.09998-0.90002-2-2-2   L7.56374,1.00796c-0.28003,0-0.5,0.22998-0.5,0.5v5.04999c0,0.27612-0.22388,0.5-0.5,0.5H1.55373c-0.27997,0-0.5,0.23004-0.5,0.5   v23.44c0,1.09998,0.90002,2,2,2h22c0.7215,0,1.35962-0.39209,1.70862-0.97052c0.05859-0.09705,0.03558-0.22528-0.04456-0.30542   L25.58645,30.59066z"/><path d="M4.64193,1.44863l-3.1626,3.1897C1.3229,4.7961,1.43465,5.06435,1.65688,5.06435h3.1626c0.13806,0,0.25-0.11194,0.25-0.25   v-3.1897C5.06948,1.40145,4.7991,1.29012,4.64193,1.44863z"/><path d="M27.94045,25.87795c0.65862-1.03648,1.09662-2.21915,1.09662-3.72162c0-3.86401-3.13599-7-7-7c-3.84998,0-7,3.13599-7,7   c0,3.84998,3.15002,7,7,7c1.30295,0,2.58089-0.33277,3.79968-1.14203l4.547,4.547c0.60731,0.60731,1.57124,0.5677,2.12,0   c0.59003-0.58002,0.59003-1.52997,0-2.12C32.15718,30.09474,27.78683,25.72433,27.94045,25.87795z M23.34371,25.92959   c-2.54836,0.90465-5.30664-0.98525-5.30664-3.77325c0-2.20001,1.78674-4,4-4c2.20007,0,4,1.79999,4,4   C26.03707,23.82492,24.9766,25.37453,23.34371,25.92959z"/></g></svg>