<svg xmlns="http://www.w3.org/2000/svg" xmlns:xlink="http://www.w3.org/1999/xlink" version="1.1" x="0px" y="0px" viewBox="4 -2 24 35" fill="#FF6243" width="100" height="100" xml:space="preserve"><g><path d="M8,17H6v6c0,0.5522461,0.4472656,1,1,1h3v-2H8V17z"/><path d="M24,17v5h-2v2h3c0.5527344,0,1-0.4477539,1-1v-6H24z"/><path d="M16.7070313,9.7070313c0.390625-0.390625,0.390625-1.0234375,0-1.4140625s-1.0234375-0.390625-1.4140625,0l-2,2   c-0.390625,0.390625-0.390625,1.0234375,0,1.4140625l2,2C15.4882813,13.9023438,15.7441406,14,16,14   s0.5117188-0.0976563,0.7070313-0.2929688c0.390625-0.390625,0.390625-1.0234375,0-1.4140625L16.4140625,12H19v-2h-2.5859375   L16.7070313,9.7070313z"/><path d="M22.2638779,27.2369385l0.663269-1.1106567c0.1248169-0.2089844,0.0864868-0.4733276-0.0930176-0.6410522   l-1.9050903-1.7810059C20.962059,23.4721069,21.0000229,23.2412109,21.0000229,23   c0-0.241272-0.0379639-0.472168-0.0709839-0.7042847l1.9050903-1.7809448   c0.1795044-0.1677856,0.2178345-0.4320679,0.0930176-0.6411133l-0.663269-1.1106567   c-0.1248169-0.2089844-0.3807373-0.309082-0.6207275-0.2426758l-2.4355469,0.673584   c-0.4016724-0.3388672-0.8457642-0.6258545-1.3408203-0.8256226l-0.7720947-1.989563   C17.0390854,16.1561279,16.8390732,16,16.609642,16h-1.2192383c-0.2294312,0-0.4294434,0.1561279-0.4850464,0.3787231   l-0.7720947,1.989563c-0.4950562,0.1997681-0.9391479,0.4867554-1.3408203,0.8256226l-2.4355469-0.673584   c-0.2399902-0.0664063-0.4959106,0.0336914-0.6207275,0.2426758l-0.663269,1.1106567   c-0.1248169,0.2090454-0.0864868,0.4733276,0.0930176,0.6411133l1.9050903,1.7809448   C11.0379868,22.527832,11.0000229,22.758728,11.0000229,23c0,0.2412109,0.0379639,0.4721069,0.0709839,0.7042236   l-1.9050903,1.7810059c-0.1795044,0.1677246-0.2178345,0.4320679-0.0930176,0.6410522l0.663269,1.1106567   c0.1248169,0.2090454,0.3807373,0.309082,0.6207275,0.2427368l2.4354858-0.673645   c0.4016113,0.3388672,0.8457642,0.6259155,1.3408813,0.8256836l0.7720947,1.989563   C14.9609604,29.843811,15.1609726,30,15.3904037,30h1.2192383c0.2294312,0,0.4294434-0.156189,0.4850464-0.3787231   l0.7720947-1.989563c0.4951172-0.1997681,0.93927-0.4868164,1.3408813-0.8256836l2.4354858,0.673645   C21.8831406,27.5460205,22.139061,27.4459839,22.2638779,27.2369385z M16.0000229,26c-1.6568604,0-3-1.3431396-3-3s1.3431396-3,3-3   s3,1.3431396,3,3S17.6568832,26,16.0000229,26z"/><circle cx="16.0000229" cy="23" r="2"/><polygon points="5,5 5,2 2,5  "/><path d="M11,2H6v3c0,0.5523071-0.4477539,1-1,1H2v9c0,0.5523071,0.4476929,1,1,1h8c0.5522461,0,1-0.4476929,1-1V3   C12,2.4476929,11.5522461,2,11,2z M9.5,13h-5C4.2236328,13,4,12.7763672,4,12.5S4.2236328,12,4.5,12h5   c0.2763672,0,0.5,0.2236328,0.5,0.5S9.7763672,13,9.5,13z M9.5,11h-5C4.2236328,11,4,10.7763672,4,10.5S4.2236328,10,4.5,10h5   c0.2763672,0,0.5,0.2236328,0.5,0.5S9.7763672,11,9.5,11z M9.5,9h-5C4.2236328,9,4,8.7763672,4,8.5S4.2236328,8,4.5,8h5   C9.7763672,8,10,8.2236328,10,8.5S9.7763672,9,9.5,9z"/><path d="M29.5,11.5c-0.2763672,0-0.5-0.2236328-0.5-0.5s0.2236328-0.5,0.5-0.5H30   c-0.2374268-2.3562622-2.1437378-4.2625732-4.5-4.5v0.5C25.5,6.7763672,25.2763672,7,25,7s-0.5-0.2236328-0.5-0.5V6   c-2.3562622,0.2374268-4.2625732,2.1437378-4.5,4.5h0.5c0.2763672,0,0.5,0.2236328,0.5,0.5s-0.2236328,0.5-0.5,0.5H20   c0.2374268,2.3562622,2.1437378,4.2625732,4.5,4.5v-0.5c0-0.2763672,0.2236328-0.5,0.5-0.5s0.5,0.2236328,0.5,0.5V16   c2.3562622-0.2374268,4.2625732-2.1437378,4.5-4.5H29.5z M26.9287109,8.7573242l-1.5,2.5   C25.3388672,11.4077148,25.1757813,11.5,25,11.5h-2.5c-0.2763672,0-0.5-0.2236328-0.5-0.5s0.2236328-0.5,0.5-0.5h2.2167969   l1.3544922-2.2573242c0.1425781-0.2373047,0.4521484-0.3125,0.6855469-0.1713867   C26.9941406,8.2133789,27.0712891,8.5205078,26.9287109,8.7573242z"/></g></svg>