<svg width="52" height="51" viewBox="0 0 52 51" fill="none" xmlns="http://www.w3.org/2000/svg">
<path d="M26 32.5086C29.9766 32.5086 33.2 29.3422 33.2 25.4361C33.2 21.5299 29.9766 18.3635 26 18.3635C22.0234 18.3635 18.8 21.5299 18.8 25.4361C18.8 29.3422 22.0234 32.5086 26 32.5086Z" stroke="#FF6243" stroke-width="3" stroke-linecap="round" stroke-linejoin="round"/>
<path d="M44.2938 21.6532L41.6593 15.4043L45.2 11.2909L40.4 6.57588L36.2353 10.072L29.7387 7.44755L28.2447 1.86084H23.5544L22.0378 7.52156L15.6906 10.1498L11.6 6.57588L6.8 11.2909L10.2881 15.5082L7.694 21.7732L2 23.0785V27.7936L7.76266 29.3389L10.4378 35.5727L6.8 39.5812L11.6 44.2962L15.8988 40.855L22.1528 43.3822L23.6 49.0113H28.4L29.8508 43.3843L36.2122 40.7965C37.2726 41.541 40.4 44.2962 40.4 44.2962L45.2 39.5812L41.6382 35.4541L44.2734 29.2034L49.9998 27.7398L50 23.0785L44.2938 21.6532Z" stroke="#FF5B3E" stroke-width="3" stroke-linecap="round" stroke-linejoin="round"/>
</svg>
