<svg width="68" height="67" viewBox="0 0 68 67" fill="none" xmlns="http://www.w3.org/2000/svg">
<path d="M3.6 35.081L21.2 41.3677L18 52.3695L21.2 61.7996M50 60.2279L48.4 52.3695L40.4 49.2261V38.2244L50 35.081L64.4 36.6527M56.4 13.0775L54.8 17.7925L43.6 19.3642V28.7943L51.6 25.6509H58L64.4 28.7943M3.6 28.7943L11.6 22.5075L19.6 20.9359L26 11.5058L22.8 5.21905M34 64.9429C51.673 64.9429 66 50.8695 66 33.5093C66 16.149 51.673 2.07568 34 2.07568C16.3269 2.07568 2 16.149 2 33.5093C2 50.8695 16.3269 64.9429 34 64.9429Z" stroke="#FF6243" stroke-width="4" stroke-linecap="round" stroke-linejoin="round"/>
</svg>
