<svg width="136" height="50" viewBox="0 0 136 50" fill="none" xmlns="http://www.w3.org/2000/svg">
<g clip-path="url(#clip0_1_9)">
<path d="M63.3248 36.5C62.4416 36.5 62 36.0487 62 35.1461V15.9982C62 15.0957 62.4416 14.6444 63.3248 14.6444C64.2079 14.6444 64.6495 15.0957 64.6495 15.9982V33.7922H73.3866C74.2698 33.7922 74.7114 34.2435 74.7114 35.1461C74.7114 36.0487 74.2698 36.5 73.3866 36.5H63.3248ZM79.9479 17.5133C78.949 17.5133 78.4496 16.9975 78.4496 15.966V15.0151C78.4496 14.005 78.949 13.5 79.9479 13.5H80.8626C81.8194 13.5 82.2977 14.005 82.2977 15.0151V15.966C82.2977 16.9975 81.8194 17.5133 80.8626 17.5133H79.9479ZM80.3894 36.5C79.5063 36.5 79.0647 36.0487 79.0647 35.1461V21.5105C79.0647 20.6079 79.5063 20.1566 80.3894 20.1566C81.2726 20.1566 81.7142 20.6079 81.7142 21.5105V35.1461C81.7142 36.0487 81.2726 36.5 80.3894 36.5ZM89.5994 36.5C88.7163 36.5 88.2747 36.0487 88.2747 35.1461V21.5105C88.2747 20.6079 88.7163 20.1566 89.5994 20.1566C90.4826 20.1566 90.9242 20.6079 90.9242 21.5105V22.0424C92.0388 20.7852 93.6789 20.1566 95.8447 20.1566H96.7279C98.8306 20.1566 100.387 20.6724 101.396 21.7039C102.405 22.7355 102.91 24.3258 102.91 26.4748V35.1461C102.91 36.0487 102.469 36.5 101.585 36.5C100.702 36.5 100.261 36.0487 100.261 35.1461V26.4748C100.261 25.0672 100.008 24.1162 99.5036 23.6219C99.0095 23.1169 98.0842 22.8644 96.7279 22.8644H95.8447C94.5831 22.8644 93.4843 23.0148 92.5486 23.3157C91.6129 23.6058 91.0713 24.0679 90.9242 24.7018V35.1461C90.9242 36.0487 90.4826 36.5 89.5994 36.5ZM110.484 36.5C109.6 36.5 109.159 36.0487 109.159 35.1461V15.1601C109.159 14.2575 109.6 13.8062 110.484 13.8062C111.367 13.8062 111.808 14.2575 111.808 15.1601V27.2645L119.315 20.6724C119.988 20.0814 120.609 20.1244 121.176 20.8013C121.755 21.489 121.713 22.123 121.05 22.7032L115.294 27.7803L120.798 34.179C121.387 34.8775 121.355 35.5115 120.703 36.0809C120.03 36.6719 119.399 36.6289 118.811 35.952L113.275 29.5694L111.808 30.8588V35.1461C111.808 36.0487 111.367 36.5 110.484 36.5ZM131.926 36.5C129.844 36.5 128.31 35.995 127.321 34.9849C126.333 33.9749 125.839 32.4169 125.839 30.3108V22.8644H124.293C123.41 22.8644 122.968 22.4131 122.968 21.5105C122.968 20.6079 123.41 20.1566 124.293 20.1566H125.839V17.8034C125.839 16.9008 126.28 16.4495 127.163 16.4495C128.047 16.4495 128.488 16.9008 128.488 17.8034V20.1566H132.115C132.999 20.1566 133.44 20.6079 133.44 21.5105C133.44 22.4131 132.999 22.8644 132.115 22.8644H128.488V30.3108C128.488 31.6754 128.73 32.5995 129.214 33.083C129.697 33.5558 130.601 33.7922 131.926 33.7922C132.336 33.7922 132.657 33.8997 132.888 34.1146C133.13 34.3295 133.251 34.6733 133.251 35.1461C133.251 36.0487 132.809 36.5 131.926 36.5Z" fill="white"/>
<path d="M31.5609 22.4757C27.5629 18.2962 23.6153 14.1938 19.7146 10.0473C16.9154 7.07171 14.1392 6.51524 11.2389 8.45263C8.21834 10.4704 7.14897 14.1226 8.59848 17.4657C8.7124 17.7285 8.81629 17.9956 8.94366 18.3066C7.70266 19.1053 6.49158 19.8847 5.28152 20.6635C2.71023 17.3596 2.8344 11.7396 5.55471 7.78911C8.89469 2.93874 15.3819 1.35929 20.1957 4.42456C21.7396 5.40768 22.9734 6.90804 24.2635 8.25372C27.6008 11.7347 30.9061 15.2468 34.1923 18.7761C35.7386 20.4367 35.2955 22.3932 33.2901 22.7969C32.7757 22.9004 32.1863 22.6317 31.5609 22.4757Z" fill="#FCFCFC"/>
<path d="M15.807 18.3055C16.8549 17.2865 17.822 16.3098 18.8425 15.3924C19.9666 14.3819 21.3207 14.3842 22.1768 15.3317C23.0736 16.3243 22.9873 17.5627 21.8736 18.6476C18.0289 22.3925 14.1583 26.1107 10.314 29.856C7.66816 32.4338 7.20506 35.7052 9.04228 38.5526C10.9825 41.5596 14.3615 42.5873 17.7919 41.2135C18.0955 41.0919 18.3991 40.9701 18.7836 40.816C19.5632 42.0223 20.3221 43.1966 21.1487 44.4758C18.0187 46.3941 14.7776 46.8189 11.3194 45.7445C3.99595 43.4692 1.00211 34.2689 5.70268 28.2642C6.77153 26.8988 8.14288 25.7679 9.3921 24.5465C11.5041 22.4816 13.6298 20.4307 15.807 18.3055Z" fill="#FCFCFC"/>
<path d="M46.3547 14.04C46.3955 17.4953 45.2063 20.3031 42.7807 22.6243C38.9043 26.3339 35.071 30.0885 31.2128 33.8171C29.8167 35.1663 28.2383 35.1753 27.3682 33.8631C26.672 32.8132 26.8503 31.7774 28.0046 30.6522C31.6384 27.1098 35.2465 23.5392 38.9504 20.0713C41.1157 18.044 42.3702 15.7775 41.6053 12.7613C40.4373 8.15571 35.8414 6.15902 31.0633 8.27666C30.3181 7.08364 29.5591 5.86847 28.7264 4.53533C32.0664 2.65003 35.473 2.23952 38.943 3.68333C43.4563 5.56125 45.8927 9.05719 46.3547 14.04Z" fill="#FCFCFC"/>
<path d="M41.5762 33.0611C41.3564 32.4154 41.1676 31.869 40.9465 31.2289C42.17 30.4435 43.3808 29.6662 44.5894 28.8903C47.054 32.2101 46.8914 37.5403 44.2417 41.3489C41.4873 45.3079 36.6282 47.1414 31.9465 46.0263C29.8292 45.522 28.2103 44.2744 26.7635 42.7347C23.1463 38.8854 19.5271 35.0379 15.9124 31.1861C15.628 30.883 15.3415 30.5736 15.1097 30.2308C14.4313 29.2272 14.6088 27.9048 15.4906 27.1862C16.4262 26.4238 17.6333 26.4607 18.5149 27.3885C21.9542 31.0081 25.3651 34.6547 28.7883 38.2897C29.1588 38.6832 29.5851 39.0324 29.9094 39.4599C33.2176 43.8206 39.2028 41.8926 41.2221 37.5494C41.8872 36.1189 41.9211 34.6621 41.5762 33.0611Z" fill="#FCFCFC"/>
</g>
<defs>
<clipPath id="clip0_1_9">
<rect width="136" height="50" fill="white"/>
</clipPath>
</defs>
</svg>
