<svg width="291" height="94" viewBox="0 0 291 94" fill="none" xmlns="http://www.w3.org/2000/svg">
<path d="M5.688 92C2.104 92 0.312 90.208 0.312 86.624V10.592C0.312 7.008 2.104 5.216 5.688 5.216C9.272 5.216 11.064 7.008 11.064 10.592V81.248H46.52C50.104 81.248 51.896 83.04 51.896 86.624C51.896 90.208 50.104 92 46.52 92H5.688ZM73.146 16.608C69.0927 16.608 67.066 14.56 67.066 10.464V6.688C67.066 2.67733 69.0927 0.671997 73.146 0.671997H76.858C80.7407 0.671997 82.682 2.67733 82.682 6.688V10.464C82.682 14.56 80.7407 16.608 76.858 16.608H73.146ZM74.938 92C71.354 92 69.562 90.208 69.562 86.624V32.48C69.562 28.896 71.354 27.104 74.938 27.104C78.522 27.104 80.314 28.896 80.314 32.48V86.624C80.314 90.208 78.522 92 74.938 92ZM112.313 92C108.729 92 106.937 90.208 106.937 86.624V32.48C106.937 28.896 108.729 27.104 112.313 27.104C115.897 27.104 117.689 28.896 117.689 32.48V34.592C122.212 29.6 128.868 27.104 137.657 27.104H141.241C149.774 27.104 156.089 29.152 160.185 33.248C164.281 37.344 166.329 43.6587 166.329 52.192V86.624C166.329 90.208 164.537 92 160.953 92C157.369 92 155.577 90.208 155.577 86.624V52.192C155.577 46.6027 154.553 42.8267 152.505 40.864C150.5 38.8587 146.745 37.856 141.241 37.856H137.657C132.537 37.856 128.078 38.4533 124.281 39.648C120.484 40.8 118.286 42.6347 117.689 45.152V86.624C117.689 90.208 115.897 92 112.313 92ZM197.063 92C193.479 92 191.687 90.208 191.687 86.624V7.26399C191.687 3.67999 193.479 1.88799 197.063 1.88799C200.647 1.88799 202.439 3.67999 202.439 7.26399V55.328L232.903 29.152C235.634 26.8053 238.151 26.976 240.455 29.664C242.802 32.3947 242.631 34.912 239.943 37.216L216.583 57.376L238.919 82.784C241.308 85.5573 241.18 88.0747 238.535 90.336C235.804 92.6827 233.244 92.512 230.855 89.824L208.391 64.48L202.439 69.6V86.624C202.439 90.208 200.647 92 197.063 92ZM284.079 92C275.631 92 269.402 89.9947 265.391 85.984C261.38 81.9733 259.375 75.7867 259.375 67.424V37.856H253.103C249.519 37.856 247.727 36.064 247.727 32.48C247.727 28.896 249.519 27.104 253.103 27.104H259.375V17.76C259.375 14.176 261.167 12.384 264.751 12.384C268.335 12.384 270.127 14.176 270.127 17.76V27.104H284.847C288.431 27.104 290.223 28.896 290.223 32.48C290.223 36.064 288.431 37.856 284.847 37.856H270.127V67.424C270.127 72.8427 271.108 76.512 273.071 78.432C275.034 80.3093 278.703 81.248 284.079 81.248C285.743 81.248 287.044 81.6747 287.983 82.528C288.964 83.3813 289.455 84.7467 289.455 86.624C289.455 90.208 287.663 92 284.079 92Z" fill="white"/>
</svg>
