<svg version="1.1" id="Layer_1" xmlns="http://www.w3.org/2000/svg" xmlns:xlink="http://www.w3.org/1999/xlink" x="0px" y="0px"
	 width="100%" viewBox="250 260 200 200" xml:space="preserve">
<path fill="#FCFCFC" 
	d="
M376.243530,349.903015 
	C360.251617,333.184784 344.461060,316.775299 328.858246,300.189209 
	C317.661530,288.286865 306.556641,286.061005 294.955688,293.810547 
	C282.873352,301.881653 278.595886,316.490570 284.393921,329.862915 
	C284.849609,330.913879 285.265167,331.982269 285.774658,333.226440 
	C280.810638,336.421234 275.966339,339.538971 271.126099,342.654114 
	C260.840912,329.438385 261.337616,306.958282 272.218842,291.156464 
	C285.578766,271.755005 311.527771,265.437195 330.782928,277.698273 
	C336.958557,281.630737 341.893463,287.632172 347.054047,293.014893 
	C360.403290,306.938690 373.624390,320.987091 386.769287,335.104340 
	C392.954437,341.746979 391.182037,349.572906 383.160522,351.187531 
	C381.102692,351.601746 378.745117,350.526978 376.243530,349.903015 
z"/>
<path fill="#FCFCFC" 
	d="
M313.227966,333.221893 
	C317.419556,329.146057 321.288025,325.239044 325.370026,321.569489 
	C329.866394,317.527466 335.282867,317.536896 338.707153,321.326843 
	C342.294312,325.297058 341.949219,330.250946 337.494232,334.590332 
	C322.115662,349.569916 306.633057,364.442749 291.256073,379.423981 
	C280.672638,389.735046 278.820251,402.820709 286.169128,414.210266 
	C293.930145,426.238586 307.445923,430.349060 321.167633,424.854065 
	C322.382111,424.367737 323.596283,423.880554 325.134216,423.264008 
	C328.252594,428.089355 331.288208,432.786591 334.594788,437.903168 
	C322.074890,445.576538 309.110291,447.275574 295.277771,442.978027 
	C265.983795,433.876801 254.008438,397.075470 272.810730,373.056732 
	C277.086121,367.595184 282.571503,363.071564 287.568390,358.186188 
	C296.016479,349.926514 304.519196,341.722687 313.227966,333.221893 
z"/>
<path fill="#FCFCFC" 
	d="
M435.418823,316.159912 
	C435.582153,329.981171 430.825348,341.212433 421.122742,350.497314 
	C405.617004,365.335419 390.283966,380.353851 374.851166,395.268402 
	C369.266907,400.665161 362.953186,400.701141 359.472809,395.452362 
	C356.688019,391.252594 357.401276,387.109741 362.018341,382.608765 
	C376.553558,368.439240 390.985962,354.156952 405.801697,340.285217 
	C414.462799,332.175964 419.480743,323.110077 416.421173,311.045380 
	C411.749329,292.622833 393.365479,284.636047 374.253204,293.106628 
	C371.272461,288.334564 368.236359,283.473877 364.905487,278.141296 
	C378.265625,270.600098 391.892181,268.958069 405.772156,274.733307 
	C423.825287,282.244995 433.570862,296.228729 435.418823,316.159912 
z"/>
<path fill="#FCFCFC" 
	d="
M416.304749,392.244537 
	C415.425446,389.661682 414.670441,387.476013 413.785980,384.915649 
	C418.679810,381.773956 423.523041,378.664764 428.357574,375.561127 
	C438.215942,388.840271 437.565430,410.161255 426.966614,425.395599 
	C415.949341,441.231445 396.512665,448.565430 377.786011,444.105103 
	C369.316711,442.087860 362.841309,437.097443 357.053955,430.938782 
	C342.585022,415.541443 328.108215,400.151520 313.649628,384.744476 
	C312.511810,383.532043 311.365936,382.294434 310.438873,380.923126 
	C307.725189,376.908936 308.435242,371.618958 311.962280,368.744781 
	C315.704712,365.695160 320.533234,365.842834 324.059540,369.554016 
	C337.816711,384.032532 351.460480,398.618774 365.153015,413.158752 
	C366.635162,414.732635 368.340363,416.129395 369.637573,417.839355 
	C382.870483,435.282318 406.811249,427.570160 414.888428,410.197723 
	C417.548889,404.475555 417.684418,398.648407 416.304749,392.244537 
z"/>
</svg>