<svg xmlns="http://www.w3.org/2000/svg" xmlns:bx="https://boxy-svg.com" viewBox="0 -2 60 80" x="0px" y="0px" width="100" height="100"><path fill-rule="evenodd" clip-rule="evenodd" d="M 45.078 1.817 C 46.011 1.817 46.821 2.463 47.028 3.374 L 48.134 8.24 C 48.646 10.491 50.404 12.249 52.655 12.761 L 57.521 13.867 C 58.432 14.074 59.078 14.884 59.078 15.817 C 59.078 16.751 58.432 17.561 57.521 17.768 L 52.655 18.874 C 50.404 19.386 48.646 21.144 48.134 23.394 L 47.028 28.261 C 46.821 29.171 46.011 29.817 45.078 29.817 C 44.144 29.817 43.334 29.171 43.127 28.261 L 42.021 23.394 C 41.509 21.144 39.751 19.386 37.501 18.874 L 32.634 17.768 C 31.724 17.561 31.078 16.751 31.078 15.817 C 31.078 14.884 31.724 14.074 32.634 13.867 L 37.501 12.761 C 39.751 12.249 41.509 10.491 42.021 8.24 L 43.127 3.374 C 43.334 2.463 44.144 1.817 45.078 1.817 Z" fill="#FF6243"></path><path d="M 2 26 C 2 24.895 2.895 24 4 24 L 26 24 C 27.105 24 28 24.895 28 26 C 28 27.105 27.105 28 26 28 L 4 28 C 2.895 28 2 27.105 2 26 Z" fill="#FF6243"></path><path d="M 3.522 34 C 2.682 34 2 34.895 2 36 C 2 37.105 2.682 38 3.522 38 L 46.14 38 C 46.981 38 47.662 37.105 47.662 36 C 47.662 34.895 46.981 34 46.14 34 L 3.522 34 Z" fill="#FF6243" style=""></path><path d="M 2 45.626 C 2 44.521 2.78 43.626 3.741 43.626 L 52.496 43.626 C 53.458 43.626 54.238 44.521 54.238 45.626 C 54.238 46.731 53.458 47.626 52.496 47.626 L 3.741 47.626 C 2.78 47.626 2 46.731 2 45.626 Z" fill="#FF6243" style=""></path><path d="M 2.145 54.978 C 2.145 53.873 2.742 52.978 3.478 52.978 L 40.811 52.978 C 41.548 52.978 42.145 53.873 42.145 54.978 C 42.145 56.083 41.548 56.978 40.811 56.978 L 3.478 56.978 C 2.742 56.978 2.145 56.083 2.145 54.978 Z" fill="#FF6243"></path></svg>