<svg  xmlns="http://www.w3.org/2000/svg" xmlns:bx="https://boxy-svg.com" version="1.1" x="0px" y="0px" viewBox="2 2 80 90" width="100" height="100"><g><g><path fill="#FF6243" stroke-width="0" d="M 67.483 35.711 C 66.583 35.711 65.683 35.911 64.983 36.411 L 56.583 41.311 L 56.583 37.211 C 56.583 33.111 53.283 29.811 49.183 29.811 L 14.883 29.811 C 10.783 29.811 7.483 33.111 7.483 37.211 L 7.483 70.711 C 7.483 74.811 10.783 78.111 14.883 78.111 L 49.083 78.111 C 53.183 78.111 56.483 74.811 56.483 70.711 L 56.483 66.611 L 64.883 71.511 C 65.683 71.911 66.583 72.211 67.383 72.211 C 68.683 72.211 69.983 71.711 70.883 70.811 C 71.883 69.811 72.483 68.511 72.483 67.111 L 72.483 40.811 C 72.583 38.011 70.283 35.711 67.483 35.711 Z M 65.583 63.711 L 59.383 60.111 C 58.383 59.511 57.283 59.211 56.083 59.211 C 52.483 59.211 49.483 62.111 49.483 65.811 L 49.483 70.711 C 49.483 70.911 49.283 71.111 49.083 71.111 L 14.883 71.111 C 14.683 71.111 14.483 70.911 14.483 70.711 L 14.483 37.211 C 14.483 37.011 14.683 36.811 14.883 36.811 L 49.083 36.811 C 49.283 36.811 49.483 37.011 49.483 37.211 L 49.483 42.011 C 49.483 43.811 50.183 45.511 51.483 46.711 C 53.583 48.711 56.783 49.111 59.283 47.711 L 65.483 44.111 L 65.483 63.711 L 65.583 63.711 Z"></path></g><path fill-rule="evenodd" clip-rule="evenodd" d="M 62.377 6.161 C 63.311 6.161 64.12 6.807 64.327 7.717 L 65.434 12.584 C 65.946 14.834 67.703 16.592 69.954 17.104 L 74.821 18.21 C 75.731 18.417 76.377 19.227 76.377 20.161 C 76.377 21.094 75.731 21.904 74.821 22.111 L 69.954 23.217 C 67.703 23.729 65.946 25.487 65.434 27.738 L 64.327 32.604 C 64.12 33.514 63.311 34.161 62.377 34.161 C 61.443 34.161 60.634 33.514 60.427 32.604 L 59.32 27.738 C 58.808 25.487 57.051 23.729 54.8 23.217 L 49.934 22.111 C 49.023 21.904 48.377 21.094 48.377 20.161 C 48.377 19.227 49.023 18.417 49.934 18.21 L 54.8 17.104 C 57.051 16.592 58.808 14.834 59.32 12.584 L 60.427 7.717 C 60.634 6.807 61.443 6.161 62.377 6.161 Z" fill="#FF6243"></path></g></svg>