<svg width="52" height="51" viewBox="0 0 52 51" fill="none" xmlns="http://www.w3.org/2000/svg">
<path d="M44 42.1248C45.9882 42.1248 47.6 43.7081 47.6 45.661C47.6 47.614 45.9882 49.1973 44 49.1973C42.0119 49.1973 40.4 47.614 40.4 45.661C40.4 43.7081 42.0119 42.1248 44 42.1248ZM44 42.1248H9.75386C5.47151 42.1248 3.20001 40.2831 3.20001 37.4097C3.20001 34.5364 5.47151 32.6947 9.75386 32.6947H14M9.2 6.76192H50L45.2 32.6947H14M9.2 6.76192L14 32.6947M9.2 6.76192C8.79999 5.19023 6.8 2.04688 2 2.04688M20 49.1973C21.9881 49.1973 23.6 47.614 23.6 45.661C23.6 43.7081 21.9881 42.1248 20 42.1248C18.0118 42.1248 16.4 43.7081 16.4 45.661C16.4 47.614 18.0118 49.1973 20 49.1973Z" stroke="#9E76F2" stroke-width="3" stroke-linecap="round" stroke-linejoin="round"/>
</svg>
