<svg width="65" height="68" viewBox="0 0 65 68" fill="none" xmlns="http://www.w3.org/2000/svg">
<path d="M2 12.7238V32.5766M2 12.7238C2 12.7238 2 22.6502 25.5789 22.6502C49.1578 22.6502 49.1578 12.7238 49.1578 12.7238M2 12.7238C2 12.7238 2 2.79736 25.5789 2.79736C49.1578 2.79736 49.1578 12.7238 49.1578 12.7238M2 32.5766C2 32.5766 2 42.503 25.5789 42.503C49.1578 42.503 49.1578 32.5766 49.1578 32.5766V12.7238M2 32.5766V52.4293C2 52.4293 2 62.3557 25.5789 62.3557M46.8188 49.4955L49.881 43.1171C50.2741 42.2982 51.4099 42.2982 51.803 43.1171L54.8653 49.4955L61.7136 50.5245C62.5924 50.6566 62.9424 51.767 62.3064 52.4039L57.3518 57.3651L58.521 64.3742C58.6712 65.2742 57.7523 65.9608 56.9661 65.5356L50.842 62.2245L44.7179 65.5356C43.9317 65.9608 43.0128 65.2742 43.163 64.3742L44.3322 57.3651L39.3776 52.4039C38.7417 51.767 39.0916 50.6566 39.9705 50.5245L46.8188 49.4955Z" stroke="#FF5B3E" stroke-width="4" stroke-linecap="round" stroke-linejoin="round"/>
</svg>
