<svg width="49" height="51" viewBox="0 0 49 51" fill="none" xmlns="http://www.w3.org/2000/svg">
<path d="M47.4737 2.1929L44.9474 4.6745M2 2.1929L4.52632 4.6745M47.4737 36.9353L44.9474 34.4537M2 36.9353L4.52632 34.4537M17.1579 41.8985H32.3158M19.6842 49.3433H29.7895M24.7363 4.6745C14.6308 4.6745 9.45732 9.51435 9.57856 17.0825C9.63765 20.7724 10.8413 23.2865 13.368 25.7681C15.8947 28.2497 17.1579 29.4905 17.1575 34.4537H32.3153C32.3158 29.4908 33.5789 28.2497 36.1045 25.7684C38.6306 23.2868 39.8354 20.7724 39.8942 17.0825C40.0155 9.51435 34.8421 4.6745 24.7363 4.6745Z" stroke="#9E76F2" stroke-width="3" stroke-linecap="round" stroke-linejoin="round"/>
</svg>
