<svg width="52" height="40" viewBox="0 0 52 40" fill="none" xmlns="http://www.w3.org/2000/svg">
<path d="M0.5 38.4747C0.5 39.3031 1.17157 39.9747 2 39.9747C2.82843 39.9747 3.5 39.3031 3.5 38.4747H0.5ZM31.0455 38.4747C31.0455 39.3031 31.717 39.9747 32.5455 39.9747C33.3739 39.9747 34.0455 39.3031 34.0455 38.4747H31.0455ZM26.6818 25.6155C26.6818 26.4439 27.3534 27.1155 28.1818 27.1155C29.0102 27.1155 29.6818 26.4439 29.6818 25.6155H26.6818ZM48.5 26.6871C48.5 27.5155 49.1716 28.1871 50 28.1871C50.8284 28.1871 51.5 27.5155 51.5 26.6871H48.5ZM3.5 38.4747V36.3315H0.5V38.4747H3.5ZM3.5 36.3315C3.5 28.8994 9.6409 22.8291 17.2727 22.8291V19.8291C8.03478 19.8291 0.5 27.1923 0.5 36.3315H3.5ZM17.2727 22.8291C24.9046 22.8291 31.0455 28.8994 31.0455 36.3315H34.0455C34.0455 27.1923 26.5107 19.8291 17.2727 19.8291V22.8291ZM31.0455 36.3315V38.4747H34.0455V36.3315H31.0455ZM29.6818 25.6155C29.6818 20.5508 33.8691 16.3995 39.0909 16.3995V13.3995C32.263 13.3995 26.6818 18.8437 26.6818 25.6155H29.6818ZM39.0909 16.3995C44.3127 16.3995 48.5 20.5508 48.5 25.6155H51.5C51.5 18.8437 45.9188 13.3995 39.0909 13.3995V16.3995ZM48.5 25.6155V26.6871H51.5V25.6155H48.5ZM17.2727 22.8291C22.8956 22.8291 27.5 18.3444 27.5 12.7563H24.5C24.5 16.6372 21.2895 19.8291 17.2727 19.8291V22.8291ZM27.5 12.7563C27.5 7.16805 22.8956 2.68345 17.2727 2.68345V5.68345C21.2895 5.68345 24.5 8.87521 24.5 12.7563H27.5ZM17.2727 2.68345C11.6497 2.68345 7.04545 7.16806 7.04545 12.7563H10.0455C10.0455 8.8752 13.2558 5.68345 17.2727 5.68345V2.68345ZM7.04545 12.7563C7.04545 18.3444 11.6497 22.8291 17.2727 22.8291V19.8291C13.2559 19.8291 10.0455 16.6373 10.0455 12.7563H7.04545ZM39.0909 16.3995C43.509 16.3995 47.1364 12.8744 47.1364 8.46986H44.1364C44.1364 11.1673 41.9029 13.3995 39.0909 13.3995V16.3995ZM47.1364 8.46986C47.1364 4.06534 43.509 0.540253 39.0909 0.540253V3.54025C41.9029 3.54025 44.1364 5.77245 44.1364 8.46986H47.1364ZM39.0909 0.540253C34.6728 0.540253 31.0455 4.06534 31.0455 8.46986H34.0455C34.0455 5.77244 36.2789 3.54025 39.0909 3.54025V0.540253ZM31.0455 8.46986C31.0455 12.8744 34.6728 16.3995 39.0909 16.3995V13.3995C36.2789 13.3995 34.0455 11.1673 34.0455 8.46986H31.0455Z" fill="#9E76F2"/>
</svg>
