<svg xmlns="http://www.w3.org/2000/svg" data-name="Layer 1" viewBox="0 -8 95 118.75" x="0px" y="0px" fill="#FF6243" width="100" height="100"><path d="M91.628,70.148a9.331,9.331,0,0,1-5.7,4.376,9.34,9.34,0,0,1-7.127-.938,9.4,9.4,0,0,1-4.425-10.38L56.039,56.352a14.4,14.4,0,0,1-11.4,8.217l.15,10.693a9.4,9.4,0,1,1-3.39.273,9.634,9.634,0,0,1,1.211-.239l-.149-10.639A14.455,14.455,0,0,1,28.536,50.576l-7.788-.505a9.461,9.461,0,1,1,.137-2.175l7.759.5a14.463,14.463,0,0,1,9.494-11.774L33.13,19.645a9.355,9.355,0,1,1,2.092-.613l5.02,17.02a14.327,14.327,0,0,1,9.951,1.671,14.482,14.482,0,0,1,2.728,2.035L61.4,31.632a9.382,9.382,0,1,1,7.49,3.725,9.426,9.426,0,0,1-5.98-2.153l-8.52,8.169a14.45,14.45,0,0,1,2.43,12.942l18.323,6.85q.106-.206.223-.408a9.391,9.391,0,1,1,16.266,9.391Z"/></svg>