<svg xmlns="http://www.w3.org/2000/svg" xmlns:xlink="http://www.w3.org/1999/xlink" version="1.1" x="0px" y="0px" viewBox="0 -12 96 120" fill="#FF6243" width="100" height="100" xml:space="preserve"><style type="text/css">
	.st0{fill-rule:evenodd;clip-rule:evenodd;}
</style><path class="st0" d="M58.58,39.244h32.835c1.005,0,1.824-0.819,1.824-1.824V4.585c0-1.005-0.819-1.824-1.824-1.824H58.58  c-1.005,0-1.824,0.819-1.824,1.824V37.42C56.756,38.425,57.575,39.244,58.58,39.244L58.58,39.244z M68.981,28.337v-14.67  c0-0.431,0.213-0.8,0.586-1.016c0.373-0.215,0.8-0.215,1.173,0l12.704,7.335c0.373,0.215,0.586,0.585,0.586,1.016  c0,0.431-0.213,0.8-0.586,1.016L70.74,29.353c-0.373,0.215-0.8,0.215-1.173,0C69.194,29.137,68.981,28.768,68.981,28.337  L68.981,28.337z M39.244,39.244V2.761H2.761v36.483H39.244L39.244,39.244z M32.027,30.123c0,0.806-0.653,1.459-1.459,1.459h-19.13  c-0.806,0-1.459-0.653-1.459-1.459c0-0.806,0.653-1.459,1.459-1.459h19.13C31.373,28.664,32.027,29.317,32.027,30.123L32.027,30.123  z M30.567,22.462h-19.13c-0.806,0-1.459-0.653-1.459-1.459s0.653-1.459,1.459-1.459h19.13c0.806,0,1.459,0.653,1.459,1.459  S31.373,22.462,30.567,22.462L30.567,22.462z M11.437,13.341c-0.806,0-1.459-0.653-1.459-1.459c0-0.806,0.653-1.459,1.459-1.459  h19.13c0.806,0,1.459,0.653,1.459,1.459c0,0.806-0.653,1.459-1.459,1.459H11.437L11.437,13.341z M91.415,56.756H58.58  c-1.005,0-1.824,0.819-1.824,1.824v32.835c0,1.005,0.819,1.824,1.824,1.824h32.835c1.005,0,1.824-0.819,1.824-1.824V58.58  C93.239,57.575,92.42,56.756,91.415,56.756L91.415,56.756z M72.346,77.284c1.135,0,2.196,0.315,3.101,0.861l0.021-15.99  c0-0.803,0.651-1.454,1.454-1.454c0.478,0,0.903,0.231,1.168,0.588l0.001-0.001c0.548,0.736,1.271,1.402,1.978,2.053  c2.611,2.405,5.045,4.646,2.671,10.7c-0.293,0.749-1.138,1.119-1.887,0.827c-0.749-0.293-1.119-1.138-0.827-1.887  c1.565-3.993,0.085-5.626-1.656-7.242l-0.023,17.295c0.004,0.085,0.005,0.171,0.005,0.257c0,3.317-2.69,6.007-6.007,6.007  s-6.007-2.69-6.007-6.007S69.029,77.284,72.346,77.284L72.346,77.284z M72.346,80.203c1.706,0,3.088,1.382,3.088,3.088  c0,1.706-1.382,3.088-3.088,3.088c-1.706,0-3.088-1.382-3.088-3.088C69.258,81.585,70.64,80.203,72.346,80.203L72.346,80.203z   M39.244,80.982V58.58c0-1.005-0.819-1.824-1.824-1.824H4.585c-1.005,0-1.824,0.819-1.824,1.824v23.011l9.916-7.514  c0.637-0.481,1.541-0.359,2.029,0.27l5.478,6.179l9.897-9.031c0.049-0.049,0.102-0.095,0.159-0.137  c0.645-0.482,1.559-0.349,2.041,0.296L39.244,80.982L39.244,80.982z M17.925,63.302c1.833,0,3.32,1.486,3.32,3.32  c0,1.833-1.486,3.32-3.32,3.32c-1.833,0-3.32-1.486-3.32-3.32C14.605,64.789,16.091,63.302,17.925,63.302L17.925,63.302z   M30.904,74.687c2.78,3.723,5.56,7.447,8.34,11.17v5.559c0,1.005-0.819,1.824-1.824,1.824H4.585c-1.005,0-1.824-0.819-1.824-1.824  v-6.168c3.534-2.678,7.067-5.356,10.601-8.033l4.673,5.272l-2.231,2.036c-0.595,0.541-0.638,1.463-0.097,2.058  c0.541,0.595,1.463,0.638,2.058,0.097L30.904,74.687z"/></svg>