<svg xmlns="http://www.w3.org/2000/svg" xmlns:xlink="http://www.w3.org/1999/xlink" xmlns:serif="http://www.serif.com/" viewBox="0 -3 32 40" version="1.1" xml:space="preserve" style="" x="0px" y="0px" fill-rule="evenodd" clip-rule="evenodd" stroke-linejoin="round" stroke-miterlimit="2" fill="#FF6243" width="200" height="200"><g transform="matrix(1,0,0,1,-144,-192)"><path d="M159.5,210C159.5,209.172 158.828,208.5 158,208.5L152,208.5C151.172,208.5 150.5,209.172 150.5,210L150.5,216C150.5,216.828 151.172,217.5 152,217.5L158,217.5C158.828,217.5 159.5,216.828 159.5,216L159.5,210ZM164.5,212.5L161,212.5C160.724,212.5 160.5,212.724 160.5,213C160.5,213.276 160.724,213.5 161,213.5L164.5,213.5L164.5,217C164.5,217.276 164.724,217.5 165,217.5C165.276,217.5 165.5,217.276 165.5,217L165.5,213.5L169,213.5C169.276,213.5 169.5,213.276 169.5,213C169.5,212.724 169.276,212.5 169,212.5L165.5,212.5L165.5,209C165.5,208.724 165.276,208.5 165,208.5C164.724,208.5 164.5,208.724 164.5,209L164.5,212.5ZM169.5,200C169.5,199.172 168.828,198.5 168,198.5L162,198.5C161.172,198.5 160.5,199.172 160.5,200L160.5,206C160.5,206.828 161.172,207.5 162,207.5L168,207.5C168.828,207.5 169.5,206.828 169.5,206L169.5,200ZM159.5,200C159.5,199.172 158.828,198.5 158,198.5L152,198.5C151.172,198.5 150.5,199.172 150.5,200L150.5,206C150.5,206.828 151.172,207.5 152,207.5L158,207.5C158.828,207.5 159.5,206.828 159.5,206L159.5,200Z"/></g></svg>